<?xml version="1.0" encoding="UTF-8" standalone="no"?>
<svg
   width="512"
   height="512"
   xml:space="preserve"
   version="1.1"
   id="svg4"
   sodipodi:docname="ios-topographic-outline.svg"
   inkscape:version="1.2.2 (b0a8486541, 2022-12-01)"
   xmlns:inkscape="http://www.inkscape.org/namespaces/inkscape"
   xmlns:sodipodi="http://sodipodi.sourceforge.net/DTD/sodipodi-0.dtd"
   xmlns="http://www.w3.org/2000/svg"
   xmlns:svg="http://www.w3.org/2000/svg"><sodipodi:namedview
     id="namedview5"
     pagecolor="#ffffff"
     bordercolor="#666666"
     borderopacity="1.0"
     inkscape:showpageshadow="2"
     inkscape:pageopacity="0.0"
     inkscape:pagecheckerboard="0"
     inkscape:deskcolor="#d1d1d1"
     showgrid="false"
     inkscape:zoom="2"
     inkscape:cx="259.75"
     inkscape:cy="209.5"
     inkscape:window-width="3840"
     inkscape:window-height="2122"
     inkscape:window-x="0"
     inkscape:window-y="0"
     inkscape:window-maximized="1"
     inkscape:current-layer="layer1"
     showguides="false" /><defs
     id="defs8"><inkscape:path-effect
       effect="powermask"
       id="path-effect10010"
       is_visible="true"
       lpeversion="1"
       uri="#mask-powermask-path-effect10010"
       invert="false"
       hide_mask="false"
       background="true"
       background_color="#ffffffff" /><inkscape:path-effect
       effect="powermask"
       id="path-effect10000"
       is_visible="true"
       lpeversion="1"
       uri="#mask-powermask-path-effect10000"
       invert="false"
       hide_mask="false"
       background="true"
       background_color="#ffffffff" /><inkscape:path-effect
       effect="powermask"
       id="path-effect9953"
       is_visible="true"
       lpeversion="1"
       uri="#mask-powermask-path-effect9953"
       invert="false"
       hide_mask="false"
       background="true"
       background_color="#ffffffff" /><inkscape:path-effect
       effect="spiro"
       id="path-effect4239"
       is_visible="true"
       lpeversion="1" /><inkscape:path-effect
       effect="spiro"
       id="path-effect4235"
       is_visible="true"
       lpeversion="1" /><inkscape:path-effect
       effect="spiro"
       id="path-effect4231"
       is_visible="true"
       lpeversion="1" /><filter
       id="mask-powermask-path-effect8967_inverse"
       inkscape:label="filtermask-powermask-path-effect8967"
       style="color-interpolation-filters:sRGB"
       height="100"
       width="100"
       x="-50"
       y="-50"><feColorMatrix
         id="mask-powermask-path-effect8967_primitive1"
         values="1"
         type="saturate"
         result="fbSourceGraphic" /><feColorMatrix
         id="mask-powermask-path-effect8967_primitive2"
         values="-1 0 0 0 1 0 -1 0 0 1 0 0 -1 0 1 0 0 0 1 0 "
         in="fbSourceGraphic" /></filter><filter
       id="mask-powermask-path-effect8972_inverse"
       inkscape:label="filtermask-powermask-path-effect8972"
       style="color-interpolation-filters:sRGB"
       height="100"
       width="100"
       x="-50"
       y="-50"><feColorMatrix
         id="mask-powermask-path-effect8972_primitive1"
         values="1"
         type="saturate"
         result="fbSourceGraphic" /><feColorMatrix
         id="mask-powermask-path-effect8972_primitive2"
         values="-1 0 0 0 1 0 -1 0 0 1 0 0 -1 0 1 0 0 0 1 0 "
         in="fbSourceGraphic" /></filter><filter
       id="mask-powermask-path-effect8977_inverse"
       inkscape:label="filtermask-powermask-path-effect8977"
       style="color-interpolation-filters:sRGB"
       height="100"
       width="100"
       x="-50"
       y="-50"><feColorMatrix
         id="mask-powermask-path-effect8977_primitive1"
         values="1"
         type="saturate"
         result="fbSourceGraphic" /><feColorMatrix
         id="mask-powermask-path-effect8977_primitive2"
         values="-1 0 0 0 1 0 -1 0 0 1 0 0 -1 0 1 0 0 0 1 0 "
         in="fbSourceGraphic" /></filter><filter
       id="mask-powermask-path-effect8982_inverse"
       inkscape:label="filtermask-powermask-path-effect8982"
       style="color-interpolation-filters:sRGB"
       height="100"
       width="100"
       x="-50"
       y="-50"><feColorMatrix
         id="mask-powermask-path-effect8982_primitive1"
         values="1"
         type="saturate"
         result="fbSourceGraphic" /><feColorMatrix
         id="mask-powermask-path-effect8982_primitive2"
         values="-1 0 0 0 1 0 -1 0 0 1 0 0 -1 0 1 0 0 0 1 0 "
         in="fbSourceGraphic" /></filter><filter
       id="mask-powermask-path-effect9007_inverse"
       inkscape:label="filtermask-powermask-path-effect9007"
       style="color-interpolation-filters:sRGB"
       height="100"
       width="100"
       x="-50"
       y="-50"><feColorMatrix
         id="mask-powermask-path-effect9007_primitive1"
         values="1"
         type="saturate"
         result="fbSourceGraphic" /><feColorMatrix
         id="mask-powermask-path-effect9007_primitive2"
         values="-1 0 0 0 1 0 -1 0 0 1 0 0 -1 0 1 0 0 0 1 0 "
         in="fbSourceGraphic" /></filter><filter
       id="mask-powermask-path-effect9030_inverse"
       inkscape:label="filtermask-powermask-path-effect9030"
       style="color-interpolation-filters:sRGB"
       height="100"
       width="100"
       x="-50"
       y="-50"><feColorMatrix
         id="mask-powermask-path-effect9030_primitive1"
         values="1"
         type="saturate"
         result="fbSourceGraphic" /><feColorMatrix
         id="mask-powermask-path-effect9030_primitive2"
         values="-1 0 0 0 1 0 -1 0 0 1 0 0 -1 0 1 0 0 0 1 0 "
         in="fbSourceGraphic" /></filter><filter
       id="mask-powermask-path-effect9896_inverse"
       inkscape:label="filtermask-powermask-path-effect9896"
       style="color-interpolation-filters:sRGB"
       height="100"
       width="100"
       x="-50"
       y="-50"><feColorMatrix
         id="mask-powermask-path-effect9896_primitive1"
         values="1"
         type="saturate"
         result="fbSourceGraphic" /><feColorMatrix
         id="mask-powermask-path-effect9896_primitive2"
         values="-1 0 0 0 1 0 -1 0 0 1 0 0 -1 0 1 0 0 0 1 0 "
         in="fbSourceGraphic" /></filter><filter
       id="mask-powermask-path-effect9906_inverse"
       inkscape:label="filtermask-powermask-path-effect9906"
       style="color-interpolation-filters:sRGB"
       height="100"
       width="100"
       x="-50"
       y="-50"><feColorMatrix
         id="mask-powermask-path-effect9906_primitive1"
         values="1"
         type="saturate"
         result="fbSourceGraphic" /><feColorMatrix
         id="mask-powermask-path-effect9906_primitive2"
         values="-1 0 0 0 1 0 -1 0 0 1 0 0 -1 0 1 0 0 0 1 0 "
         in="fbSourceGraphic" /></filter><mask
       maskUnits="userSpaceOnUse"
       id="mask-powermask-path-effect9953"><path
         id="mask-powermask-path-effect9953_box"
         style="fill:#ffffff;fill-opacity:1"
         d="M 63.731376,63.286993 H 448.31038 V 449 H 63.731376 Z" /><path
         style="fill:#000000;fill-opacity:1;stroke:none;stroke-width:20.6014;stroke-linecap:butt;stroke-linejoin:miter;stroke-dasharray:none;stroke-opacity:1"
         d="m 252.31992,143.03933 c 1e-5,-51.000683 41.3442,-92.344898 92.34488,-92.344885 51.00068,-1.3e-5 92.34487,41.344202 92.34488,92.344885 0,40.9821 -26.69632,75.72893 -63.64727,87.79883 l -28.69761,10.02412 -29.50947,-10.29351 c -36.52949,-12.31084 -62.83541,-46.84811 -62.83541,-87.52944"
         id="path9951"
         sodipodi:nodetypes="csscccc" /></mask><filter
       id="mask-powermask-path-effect9953_inverse"
       inkscape:label="filtermask-powermask-path-effect9953"
       style="color-interpolation-filters:sRGB"
       height="100"
       width="100"
       x="-50"
       y="-50"><feColorMatrix
         id="mask-powermask-path-effect9953_primitive1"
         values="1"
         type="saturate"
         result="fbSourceGraphic" /><feColorMatrix
         id="mask-powermask-path-effect9953_primitive2"
         values="-1 0 0 0 1 0 -1 0 0 1 0 0 -1 0 1 0 0 0 1 0 "
         in="fbSourceGraphic" /></filter><mask
       maskUnits="userSpaceOnUse"
       id="mask-powermask-path-effect10000"><path
         id="mask-powermask-path-effect10000_box"
         style="fill:#ffffff;fill-opacity:1"
         d="M 114.23319,95.651227 H 415.55372 V 412.38994 H 114.23319 Z" /><path
         style="fill:#000000;fill-opacity:1;stroke:none;stroke-width:20.6014;stroke-linecap:butt;stroke-linejoin:miter;stroke-dasharray:none;stroke-opacity:1"
         d="m 252.31992,143.03933 c 1e-5,-51.000684 41.3442,-92.344899 92.34488,-92.344886 51.00068,-1.3e-5 92.34487,41.344202 92.34488,92.344886 0,40.9821 -26.69632,75.72893 -63.64727,87.79883 l -28.69761,10.02412 -29.50947,-10.29351 c -36.52949,-12.31084 -62.83541,-46.84811 -62.83541,-87.52944"
         id="path9998"
         sodipodi:nodetypes="csscccc" /></mask><filter
       id="mask-powermask-path-effect10000_inverse"
       inkscape:label="filtermask-powermask-path-effect10000"
       style="color-interpolation-filters:sRGB"
       height="100"
       width="100"
       x="-50"
       y="-50"><feColorMatrix
         id="mask-powermask-path-effect10000_primitive1"
         values="1"
         type="saturate"
         result="fbSourceGraphic" /><feColorMatrix
         id="mask-powermask-path-effect10000_primitive2"
         values="-1 0 0 0 1 0 -1 0 0 1 0 0 -1 0 1 0 0 0 1 0 "
         in="fbSourceGraphic" /></filter><mask
       maskUnits="userSpaceOnUse"
       id="mask-powermask-path-effect10010"><path
         id="mask-powermask-path-effect10010_box"
         style="fill:#ffffff;fill-opacity:1"
         d="m 149.86558,138.24051 h 146.43093 v 135.3992 H 149.86558 Z" /><path
         style="fill:#000000;fill-opacity:1;stroke:none;stroke-width:20.6014;stroke-linecap:butt;stroke-linejoin:miter;stroke-dasharray:none;stroke-opacity:1"
         d="m 252.31994,143.1074 c 1e-5,-51.000686 41.3442,-92.344901 92.34488,-92.344888 51.00068,-1.3e-5 92.34487,41.344202 92.34488,92.344888 0,40.9821 -26.69632,75.72893 -63.64727,87.79883 l -28.69761,10.02412 -29.50947,-10.29351 C 278.62586,218.326 252.31994,183.78873 252.31994,143.1074"
         id="path10008"
         sodipodi:nodetypes="csscccc" /></mask><filter
       id="mask-powermask-path-effect10010_inverse"
       inkscape:label="filtermask-powermask-path-effect10010"
       style="color-interpolation-filters:sRGB"
       height="100"
       width="100"
       x="-50"
       y="-50"><feColorMatrix
         id="mask-powermask-path-effect10010_primitive1"
         values="1"
         type="saturate"
         result="fbSourceGraphic" /><feColorMatrix
         id="mask-powermask-path-effect10010_primitive2"
         values="-1 0 0 0 1 0 -1 0 0 1 0 0 -1 0 1 0 0 0 1 0 "
         in="fbSourceGraphic" /></filter></defs><path
     id="path4196"
     style="color:#000000;fill:#000000;-inkscape-stroke:none"
     d="M 219.66602 64.287109 C 168.51524 64.287109 129.34985 86.162632 103.51758 115.55078 C 77.6853 144.93893 64.730469 181.55018 64.730469 212.69922 C 64.730469 243.89486 78.421464 271.26597 99.5625 295.13867 C 120.70354 319.01139 149.33051 339.79946 180.65234 359.10938 C 210.55719 377.54572 229.19465 399.04214 252.92773 416.87305 C 276.66082 434.70395 305.7041 448 353.13867 448 C 377.45764 448 396.3338 441.85659 410.28125 431.10938 C 424.2287 420.36217 432.9281 405.36427 438.27734 388.90625 C 448.97583 355.99019 447.19922 316.49852 447.19922 284.5 C 447.19922 249.027 434.03506 220.61033 412.11133 196.49219 C 408.8109 200.705 405.14611 204.61413 401.12695 208.14258 C 420.54698 229.61659 431.19922 253.29488 431.19922 284.5 C 431.19922 316.98969 432.39253 355.2492 423.06055 383.96094 C 418.39455 398.3168 411.32957 410.10285 400.51562 418.43555 C 389.70169 426.76824 374.81962 432 353.13867 432 C 308.57344 432 284.45822 420.54816 262.53906 404.08008 C 240.6199 387.61199 221.11253 365.25751 189.04883 345.49023 C 158.40213 326.59654 130.96703 306.46538 111.54102 284.5293 C 92.114998 262.59321 80.730469 239.26429 80.730469 212.69922 C 80.730469 186.08754 92.348774 152.49328 115.53516 126.11523 C 138.72153 99.7372 173.02277 80.287109 219.66602 80.287109 C 250.14082 80.287109 267.98929 82.475155 281.05273 86.535156 C 285.08474 82.056374 289.56437 78.008329 294.44531 74.455078 C 278.32161 67.843416 257.01104 64.287109 219.66602 64.287109 z " /><path
     style="color:#000000;fill:#000000;-inkscape-stroke:none"
     d="m 328.2793,248 c -8.4698,0.12215 -15.402,5.31292 -20.02539,11.68164 -4.6234,6.36872 -7.6822,14.25525 -9.73829,22.75195 -4.11216,16.99342 -4.3663,36.28588 1.20899,50.83008 4.69602,12.25046 9.56762,23.4084 16.23437,32.17774 6.66676,8.76933 16.12238,15.35937 27.63477,15.35937 11.46563,0 21.6369,-6.06513 29.0332,-14.90039 7.39631,-8.83526 12.47076,-20.55341 14.83985,-33.67969 2.9877,-16.55383 -5.83477,-35.61793 -17.17578,-52.38281 -5.67051,-8.38244 -12.17593,-15.99818 -19.10352,-21.7832 C 344.25991,252.26966 336.85674,247.87629 328.2793,248 Z m 0.23047,16 c 2.16014,-0.0312 7.064,1.86011 12.42382,6.33594 5.35983,4.47582 11.12108,11.09861 16.10547,18.46679 9.96878,14.73637 16.00835,33.22535 14.68164,40.57618 -1.94533,10.77838 -6.18067,20.06144 -11.36133,26.25 -5.18065,6.18855 -10.85355,9.17187 -16.76562,9.17187 -5.86531,0 -10.00963,-2.6123 -14.89844,-9.04297 -4.88881,-6.43066 -9.52726,-16.47118 -14.03125,-28.2207 -3.62472,-9.45578 -4.0167,-27.21072 -0.59765,-41.33984 1.70952,-7.06456 4.33236,-13.25689 7.13476,-17.11719 2.8024,-3.86031 5.0408,-5.04737 7.3086,-5.08008 z"
     id="path4408" /><path
     id="path4241"
     style="color:#000000;fill:#000000;-inkscape-stroke:none"
     d="M 216.65039 96.667969 C 215.31116 96.643909 213.96661 96.647648 212.61523 96.681641 C 193.69601 97.157529 173.62599 103.41678 153.10938 118.00195 C 119.35238 141.99968 109.88544 177.89355 117.92383 210.21289 C 125.96221 242.53223 150.34242 271.83911 183.09961 286.87109 L 183.27734 286.95312 L 183.45898 287.02539 C 213.91746 299.23297 236.47926 330.05104 259.67383 358.58008 C 271.27111 372.84459 283.05251 386.46693 296.82227 396.4707 C 310.59201 406.47448 326.77051 412.72776 345.34375 411.14648 C 380.31318 408.16928 400.07141 391.75898 408.29688 370.39648 C 416.52235 349.034 414.79524 324.11665 413.29688 301.0625 C 411.7575 277.37715 401.35841 247.32354 386.04297 218.72656 C 381.37961 221.30736 376.48183 223.51763 371.33594 225.20117 C 371.33621 225.20168 371.33566 225.20262 371.33594 225.20312 L 371.57031 225.125 L 371.33789 225.20703 C 386.10912 252.75167 396.03136 282.1172 397.33008 302.09961 C 398.82122 325.04271 399.73074 348.11649 393.36523 364.64844 C 386.99974 381.18038 374.93994 392.56782 343.98633 395.20312 C 329.59805 396.42811 317.86701 391.98418 306.22656 383.52734 C 294.58612 375.07052 283.45706 362.47026 272.08789 348.48633 C 249.41755 320.60207 225.89462 286.9481 189.73438 272.31055 C 161.49369 259.33691 140.18165 233.4103 133.45117 206.34961 C 126.71774 179.27698 133.4144 151.6318 162.37891 131.04102 C 183.32271 116.15214 201.91923 111.71943 219.68359 112.79492 C 233.85845 113.65309 247.65061 118.25382 261.15625 124.69727 C 262.37164 119.3851 264.05995 114.25641 266.2168 109.36523 C 252.03349 102.76181 236.89372 97.807623 220.65039 96.824219 C 219.32353 96.743888 217.98962 96.692029 216.65039 96.667969 z " /><path
     id="path4406"
     style="color:#000000;fill:#000000;-inkscape-stroke:none"
     d="M 201.92969 139.24414 C 195.26728 139.32604 188.87995 140.60419 183.06055 143.47461 C 170.19414 149.82095 158.73772 158.81148 153.51367 171.7832 C 148.28964 184.75493 150.62451 200.7654 162.02539 217.20898 C 173.22704 233.36522 184.7545 239.39882 194.75 241.70703 C 204.7455 244.01525 211.67269 243.66494 220.08594 248.71094 C 229.03887 254.08061 234.59917 260.98626 242.36719 266.6875 C 250.13521 272.38874 261.70812 275.17933 274.9043 269.62305 C 282.7258 266.32978 288.21676 259.84699 291.31641 252.54297 C 294.41604 245.23895 295.47982 237.01546 295.27148 228.56445 C 295.13997 223.22941 294.50515 217.78766 293.41992 212.41406 C 276.74448 199.94175 264.77007 181.54706 260.58398 160.41211 C 253.19102 155.10838 244.84208 150.55239 236.20312 146.97461 C 224.90583 142.29588 213.03368 139.10771 201.92969 139.24414 z M 201.01562 155.60938 C 209.30864 155.40966 219.7998 157.49833 230.08008 161.75586 C 245.74525 168.24351 260.66916 179.34779 267.13672 189.07812 C 273.98392 199.37963 278.9412 215.4025 279.27539 228.95898 C 279.44249 235.73724 278.46896 241.85844 276.58789 246.29102 C 274.70682 250.72358 272.2738 253.37022 268.69531 254.87695 C 259.09151 258.92066 257.06594 257.62899 251.83398 253.78906 C 246.60204 249.94914 239.76148 241.85579 228.31445 234.99023 C 216.32775 227.801 205.85407 227.85016 198.34961 226.11719 C 190.84515 224.38422 184.77212 221.93549 175.17383 208.0918 C 165.77476 194.53545 165.28945 185.37488 168.35547 177.76172 C 171.42149 170.14855 179.36542 163.13811 190.13867 157.82422 C 192.16898 156.82277 194.70219 156.16195 197.60352 155.83594 C 198.69151 155.71368 199.83091 155.63791 201.01562 155.60938 z " /><g
     inkscape:groupmode="layer"
     id="layer1"
     inkscape:label="Layer 1"><path
       style="fill:none;fill-opacity:1;stroke:#000000;stroke-width:16;stroke-linecap:butt;stroke-linejoin:miter;stroke-dasharray:none;stroke-opacity:0.984755"
       d="m 272.94565,143.71917 c 10e-6,-39.60941 32.10976,-71.719176 71.71917,-71.71917 39.60941,-6e-6 71.71916,32.10976 71.71917,71.71917 0,31.82854 -20.73356,58.81448 -49.43132,68.1885 l -22.28785,7.78518 -22.91838,-7.9944 C 293.376,202.13731 272.94565,175.31412 272.94565,143.71917"
       id="path956-6"
       sodipodi:nodetypes="csscccc" /></g></svg>
